<svg id="图层_1" data-name="图层 1" xmlns="http://www.w3.org/2000/svg" viewBox="311 311 512 512"><defs><style>.cls-1{fill:#f6cccc;}.cls-2{fill:#d20000;}.cls-3{fill:#f90;}.cls-4{fill:#ffebcc;}</style></defs><polygon class="cls-1" points="412.45 716.58 412.45 536.03 460.94 564.78 460.94 686.97 412.45 716.58"/><polygon class="cls-2" points="412.45 716.58 358.82 686.97 358.82 446.68 566.5 565.53 775.04 446.68 775.04 687.4 722.69 716.58 722.69 538.07 566.93 627.32 412.45 536.36 412.45 716.58"/><polygon class="cls-1" points="672.12 567.05 672.12 686.11 722.69 716.58 722.69 538.07 672.12 567.05"/><polygon class="cls-1" points="722.69 416.21 775.04 446.68 566.5 565.53 358.82 446.68 410.74 416.21 566.5 505.46 722.69 416.21"/><polygon class="cls-3" points="567.53 369.6 673.86 430.38 710.69 409.34 567.23 326.1 421.7 408.76 459.81 430.59 567.53 369.6"/><polygon class="cls-4" points="459.81 430.59 496.99 451.9 567.53 411.9 636.84 451.54 673.86 430.38 567.53 369.6 459.81 430.59"/><polygon class="cls-3" points="566.78 764.25 460.46 703.48 423.63 724.52 567.09 807.76 712.62 725.1 674.51 703.26 566.78 764.25"/><polygon class="cls-4" points="674.51 703.26 637.33 681.96 566.78 721.96 497.48 682.32 460.46 703.48 566.78 764.25 674.51 703.26"/><polygon class="cls-2" points="566.19 586.94 539.85 588.66 539.85 674.48 566.19 689.07 592.54 674.48 592.54 588.66 566.19 586.94"/></svg>